# xmcd CD database file
#
# Track frame offsets:
#	150
#	23856
#	54635
#	93100
#	109285
#	135085
#	162177
#	184516
#	212610
#	242293
#	266752
#	277777
#
# Disc length: 4014 seconds
#
# Revision: 0
# Processed by: cddbd v1.5.2PL0 Copyright (c) Steve Scherf et al.
# Submitted via: CDex 1.70beta2
#
DISCID=920fac0c
DTITLE=Bertn Rosengren - I'm Flying
DYEAR=2008
DGENRE=Jazz
TTITLE0=I'm flying
TTITLE1=Deliliah
TTITLE2=Celis mood
TTITLE3=Blues waltz
TTITLE4=The count
TTITLE5=Ever blue
TTITLE6=Where or when
TTITLE7=The best thing for you
TTITLE8=Star eyes
TTITLE9=Autumn
TTITLE10=Two sleepy people
TTITLE11=Hip walk
EXTD=YEAR: 2008
EXTT0=
EXTT1=
EXTT2=
EXTT3=
EXTT4=
EXTT5=
EXTT6=
EXTT7=
EXTT8=
EXTT9=
EXTT10=
EXTT11=
PLAYORDER=
